<svg xmlns="http://www.w3.org/2000/svg" width="120" height="120" fill="none"><path fill="#EBEBEB" fill-rule="evenodd" d="M60 117c31.48 0 57-25.52 57-57S91.48 3 60 3 3 28.52 3 60s25.52 57 57 57Zm0 3c33.137 0 60-26.863 60-60S93.137 0 60 0 0 26.863 0 60s26.863 60 60 60Z" clip-rule="evenodd"/><path fill="#EBEBEB" fill-rule="evenodd" d="M67.655 68.655c-5.728 5.728-15.014 5.728-20.742 0-5.727-5.727-5.727-15.014 0-20.742 5.728-5.727 15.014-5.727 20.742 0 5.728 5.728 5.728 15.015 0 20.742Zm1.762 5.532c-7.841 5.998-19.104 5.41-26.275-1.76-7.81-7.811-7.81-20.474 0-28.285 7.81-7.81 20.474-7.81 28.284 0 7.171 7.171 7.758 18.433 1.762 26.274l14.267 14.267-3.772 3.77-14.266-14.266Z" clip-rule="evenodd"/></svg>
